<svg xmlns="http://www.w3.org/2000/svg" xmlns:xlink="http://www.w3.org/1999/xlink" style="isolation:isolate" viewBox="0 0 595.276 155.991" width="595.276" height="155.991"><defs><clipPath id="_clipPath_y74rJpdTuzEHq252OmZsFU7Eae28augj"><rect width="595.276" height="155.991"/></clipPath></defs><g clip-path="url(#_clipPath_y74rJpdTuzEHq252OmZsFU7Eae28augj)"><rect width="595.276" height="155.991" style="fill:rgb(0,0,0,0)"/><path d=" M 408.682 56.242 C 408.471 56.303 408.25 56.371 408.029 56.438 C 398.2 59.349 388.576 62.14 379.169 64.804 C 378.717 64.943 378.257 65.072 377.797 65.2 C 368.321 67.882 359.079 70.439 350.032 72.884 C 339.892 75.617 330.014 78.22 320.403 80.676 C 310.275 83.27 300.44 85.711 290.89 88.006 C 280.872 90.42 271.17 92.665 261.789 94.77 C 254.156 96.478 246.732 98.095 239.511 99.611 C 237.091 100.115 234.719 100.616 232.35 101.099 C 227.649 102.07 223.047 102.999 218.526 103.885 C 214.344 104.699 210.252 105.479 206.228 106.241 C 204.878 106.491 203.547 106.743 202.226 106.988 L 202.227 106.988 C 202.007 107.021 201.805 107.057 201.602 107.092 L 201.364 106.836 L 201.6 107.092 C 191.388 108.98 181.64 110.655 172.406 112.144 C 161.807 113.862 151.855 115.329 142.497 116.584 C 131.663 118.051 121.652 119.219 112.443 120.167 C 111.881 120.225 111.309 120.29 110.758 120.339 C 100.112 121.422 90.558 122.169 82.04 122.686 L 82.049 122.687 C 71.726 110.106 54.172 92.026 39.23 77.71 C 42.219 76.212 45.436 74.758 48.926 73.363 C 52.883 71.785 57.593 70.252 62.815 68.814 C 71.026 66.564 80.488 64.546 90.334 62.913 C 100.534 61.23 111.105 59.958 121.052 59.278 C 124.302 59.057 127.485 58.902 130.566 58.806 C 141.778 58.66 151.277 60.543 165.76 68.422 L 164.21 66.747 C 164.301 66.827 164.382 66.914 164.474 66.993 L 164.474 66.993 C 165.023 67.537 165.582 68.074 166.138 68.629 C 166.15 68.635 166.161 68.641 166.173 68.648 C 165.601 68.095 165.039 67.535 164.474 66.993 C 164.383 66.914 164.302 66.827 164.21 66.748 L 153.744 55.449 L 164.21 66.748 C 158.436 61.361 150.257 55.439 144.215 52.928 C 143.34 52.564 142.51 52.281 141.735 52.073 C 142.924 51.452 144.615 50.672 146.835 49.81 C 148.318 49.233 150.04 48.626 152.011 47.981 C 152.671 47.769 153.359 47.553 154.066 47.339 C 155.846 46.787 157.793 46.242 159.929 45.687 C 164.201 44.577 169.177 43.468 174.918 42.445 C 176.189 42.221 177.479 42 178.805 41.785 C 179.758 41.682 180.69 41.596 181.619 41.527 C 184.664 41.295 187.603 41.272 190.475 41.445 C 191.702 41.515 192.914 41.629 194.12 41.78 C 196.008 42.013 197.874 42.328 199.735 42.745 C 200.961 43.011 202.18 43.333 203.392 43.691 C 209.05 45.353 214.694 47.916 220.684 51.471 C 219.573 50.397 218.467 49.346 217.392 48.302 C 217.31 48.225 217.226 48.151 217.143 48.078 C 217.22 48.144 217.296 48.21 217.37 48.281 C 217.295 48.21 217.223 48.14 217.151 48.07 C 218.138 48.938 219.117 49.862 220.079 50.83 C 220.296 51.059 220.531 51.273 220.755 51.511 C 220.765 51.505 220.771 51.514 220.771 51.514 C 220.779 51.525 220.79 51.517 220.797 51.527 C 220.57 51.287 220.333 51.055 220.088 50.812 C 219.133 49.855 218.164 48.923 217.159 48.052 C 209.801 41.651 201.557 37.867 195.966 35.921 C 214.584 32.707 232.624 33.887 249.405 44.494 C 247.87 43.026 246.375 41.593 244.908 40.218 C 244.907 40.218 244.907 40.217 244.907 40.217 L 244.907 40.217 C 246.374 41.592 247.869 43.026 249.405 44.494 C 249.445 44.517 249.484 44.542 249.524 44.567 C 249.532 44.578 249.551 44.581 249.558 44.591 C 248.801 43.813 248.031 43.061 247.259 42.327 C 246.486 41.594 245.7 40.886 244.93 40.2 C 240.494 36.287 235.946 33.126 231.28 30.886 C 242.215 27.221 252.543 24.169 262.344 21.704 C 273.557 18.877 284.072 16.847 294.007 15.621 C 307.352 13.973 319.648 13.774 331.159 15.07 C 356.134 17.879 383.884 30.288 397.753 44.827 L 397.294 43.942 C 387.296 23.673 370.441 9.884 344.561 6.388 C 349.283 5.598 353.636 5.016 357.765 4.682 C 375.185 3.265 388.599 6.335 408.498 17.515 C 408.525 17.528 408.559 17.552 408.585 17.565 C 408.559 17.552 408.525 17.528 408.498 17.515 C 400.711 5.668 393.61 1.575 383.825 1.285 C 386.171 0.77 388.463 0.426 390.744 0.221 C 416.279 -2.102 437.728 14.119 454.48 38.982 C 455.478 29.864 459.83 22.211 466.423 16.719 C 462.524 25.359 459.571 33.623 460.965 40.151 C 450.117 43.604 445.352 45.129 440.024 46.776 C 438.905 47.116 437.793 47.467 436.674 47.807 C 436.555 47.845 436.448 47.876 436.329 47.915 C 428.419 50.351 420.652 52.695 412.999 54.973 L 413.004 54.977 C 411.561 55.41 410.129 55.835 408.689 56.249 L 408.682 56.242 Z  M 201.141 112.054 C 201.214 111.908 201.287 111.761 201.361 111.614 C 191.728 113.269 182.169 114.804 172.694 116.211 L 172.694 116.21 C 162.598 117.703 152.62 119.025 142.801 120.165 C 132.609 121.352 122.589 122.331 112.79 123.08 C 112.22 123.126 111.632 123.17 111.052 123.225 C 101.398 123.948 91.965 124.442 82.783 124.701 L 82.778 124.712 C 64.036 125.221 45.232 124.816 26.6 122.604 C 45.02 124.451 63.589 123.705 82.037 122.705 C 68.721 106.83 54.114 92.092 39.22 77.71 C 25.219 84.757 11.664 94.586 4.316 108.809 C 0.566 117.468 -1.607 127.58 1.447 136.776 C 3.087 141.475 6.843 145.205 11.431 147.06 L 11.434 147.06 C 22.787 151.344 35.012 152.468 46.991 153.771 C 54.048 154.44 61.122 154.911 68.201 155.255 C 68.203 155.252 68.204 155.249 68.206 155.245 C 70.083 155.337 71.981 155.413 73.915 155.494 C 81.208 155.77 88.958 155.937 97.073 155.979 C 106.219 156.024 115.859 155.899 125.86 155.621 C 135.1 155.352 144.671 154.935 154.463 154.354 C 162.799 153.857 171.319 153.256 179.964 152.514 C 180.286 152.486 180.599 152.467 180.922 152.44 C 180.929 152.429 180.936 152.417 180.943 152.406 L 180.926 152.44 C 181.571 152.386 182.209 152.321 182.855 152.267 C 192.016 151.452 201.317 150.516 210.701 149.406 C 220.179 148.29 229.729 147.008 239.311 145.57 C 247.396 144.361 255.48 143.038 263.553 141.593 C 265.192 141.292 266.802 140.997 268.422 140.693 C 278.532 138.8 288.122 136.735 297.213 134.568 C 307.509 132.111 317.16 129.512 326.148 126.832 C 332.064 125.076 337.705 123.278 343.072 121.487 C 347.62 119.911 352.14 118.275 356.591 116.592 C 367.1 112.638 377.33 108.352 387.247 103.711 L 387.246 103.711 C 387.67 103.512 388.135 103.281 388.58 103.065 L 388.575 103.065 C 400.64 97.354 412.216 91.074 423.183 84.103 C 423.567 83.85 423.957 83.627 424.341 83.375 C 419.868 94.742 422.056 114.677 422.107 114.591 C 429.161 93.928 437.89 75.746 451.123 64.188 C 456.172 68.708 460.006 77.183 463.155 87.928 C 464.714 73.136 462.049 64.872 460.744 61.856 C 467.242 69.564 479.039 73.866 491.725 77.607 C 477.47 68.954 468.038 60.417 464.34 52.037 C 505.004 39.526 549.041 24.561 595.276 7.972 C 591.649 5.239 587.752 4.894 583.702 6.084 C 575.355 9.121 520.473 28.89 445.814 51.47 C 443.693 52.112 441.554 52.75 439.404 53.397 C 438.805 53.58 438.198 53.753 437.609 53.928 C 429.767 56.28 421.735 58.642 413.523 61.023 C 411.652 61.561 409.781 62.1 407.899 62.645 C 407.86 62.658 407.821 62.671 407.792 62.676 C 407.792 62.676 407.793 62.675 407.793 62.675 C 400.279 64.832 392.632 67.007 384.875 69.166 C 382.723 69.765 380.542 70.37 378.371 70.967 L 378.366 70.967 C 368.736 73.617 358.958 76.244 349.052 78.853 C 339.567 81.346 329.976 83.785 320.297 86.193 C 310.618 88.601 300.873 90.943 291.072 93.229 C 281.105 95.556 271.093 97.802 261.084 99.964 C 251.184 102.095 241.268 104.139 231.386 106.076 C 227.822 106.775 224.26 107.456 220.709 108.129 C 214.563 109.289 208.444 110.397 202.351 111.452 C 202.023 111.516 201.697 111.561 201.361 111.614 L 201.141 112.054 Z " fill-rule="evenodd" fill="rgb(255,255,255)"/></g></svg>
