<svg xmlns="http://www.w3.org/2000/svg" xmlns:xlink="http://www.w3.org/1999/xlink" style="isolation:isolate" viewBox="0 0 595.276 407.424" width="595.276" height="407.424"><defs><clipPath id="_clipPath_7GrO3dhZvyKr2BFbJNuiV8eaydsTpUEX"><rect width="595.276" height="407.424"/></clipPath></defs><g clip-path="url(#_clipPath_7GrO3dhZvyKr2BFbJNuiV8eaydsTpUEX)"><path d=" M 592.964 190.286 C 589.058 185.822 534.559 117.652 524.98 106.12 C 515.401 94.588 510.658 96.634 504.799 97.471 C 498.847 98.308 429.933 109.933 421.935 111.235 C 413.937 112.63 408.915 115.792 413.844 122.674 C 418.215 128.812 463.507 193.076 473.551 207.212 L 293.408 250.364 L 150.001 10.887 C 144.328 2.424 143.119 -0.552 130.099 0.099 C 117.078 0.657 17.661 8.934 10.593 9.585 C 3.524 10.143 -4.288 13.305 2.78 30.045 C 9.849 46.786 122.752 290.076 125.914 297.144 C 129.076 304.212 137.26 315.744 156.418 311.094 C 176.041 306.351 244.118 288.588 281.318 278.823 C 300.941 314.442 341.024 386.611 348.465 396.934 C 358.323 410.791 365.205 408.466 380.364 403.816 C 392.268 400.189 565.993 337.692 573.806 334.53 C 581.618 331.275 586.454 329.043 581.153 321.138 C 577.247 315.372 531.397 253.991 507.403 221.813 C 523.864 217.442 582.362 201.911 588.593 200.144 C 595.94 198.284 596.963 194.75 592.964 190.286 Z  M 265.415 257.246 C 263.276 257.711 162.37 281.892 156.976 283.101 C 151.582 284.31 151.582 283.752 150.931 281.892 C 150.28 280.032 30.96 33.859 29.286 30.789 C 27.612 27.72 27.705 25.302 29.286 25.302 C 30.867 25.302 124.612 16.932 127.867 16.746 C 131.215 16.56 130.843 17.304 132.052 19.35 C 132.052 19.35 264.299 247.574 266.531 251.573 C 268.949 255.572 267.554 256.781 265.415 257.246 Z  M 549.997 310.629 C 551.578 313.14 553.252 314.814 548.137 316.581 C 543.115 318.441 377.295 374.335 374.133 375.73 C 370.878 377.125 368.367 377.59 364.275 371.545 C 360.183 365.499 306.242 272.22 306.242 272.22 L 481.828 226.556 C 486.199 225.161 487.594 224.231 490.384 228.602 C 493.081 233.066 548.416 308.118 549.997 310.629 L 549.997 310.629 Z  M 561.25 185.915 C 557.344 186.752 492.802 202.748 492.802 202.748 L 440.07 130.393 C 438.582 128.254 437.373 126.208 441.093 125.743 C 444.813 125.278 504.706 114.397 507.403 113.839 C 510.1 113.188 512.425 112.444 515.773 117.001 C 519.121 121.558 564.691 179.312 566.458 181.544 C 568.132 183.683 565.156 184.985 561.25 185.915 L 561.25 185.915 Z " fill="rgb(255,255,255)"/></g></svg>
