<svg xmlns="http://www.w3.org/2000/svg" xmlns:xlink="http://www.w3.org/1999/xlink" style="isolation:isolate" viewBox="0 0 329.159 286.101" width="329.159" height="286.101"><defs><clipPath id="_clipPath_xkx8oTORU0PnjSbvGo8IePaQNpERm7sH"><rect width="329.159" height="286.101"/></clipPath></defs><g clip-path="url(#_clipPath_xkx8oTORU0PnjSbvGo8IePaQNpERm7sH)"><path d=" M 142.519 186.268 L 243.762 186.268 L 243.242 187.141 L 221.367 223.922 C 218.967 227.956 213.209 231.231 208.516 231.231 L 164.575 231.231 L 120.634 231.231 C 115.94 231.231 110.182 227.956 107.783 223.922 L 85.907 187.141 L 64.032 150.36 C 61.633 146.326 61.633 139.776 64.032 135.742 L 85.907 98.961 L 107.783 62.18 C 110.182 58.146 115.94 54.871 120.634 54.871 L 164.575 54.871 L 208.516 54.871 C 213.209 54.871 218.967 58.146 221.367 62.18 L 243.242 98.961 L 247.149 105.529 L 309.75 105.529 L 289.891 71.525 L 252.407 7.343 C 250.04 3.29 244.308 0 239.615 0 L 164.575 0 L 89.535 0 C 84.841 0 79.109 3.29 76.742 7.343 L 39.259 71.525 L 1.775 135.708 C -0.592 139.76 -0.592 146.341 1.775 150.394 L 39.259 214.576 L 76.742 278.758 C 79.109 282.811 84.841 286.102 89.535 286.102 L 164.575 286.102 L 239.615 286.102 C 244.308 286.102 250.04 282.811 252.407 278.758 L 289.891 214.576 L 327.374 150.394 C 329.471 146.804 329.71 141.231 328.093 137.188 L 281.445 137.188 L 265.835 137.188 L 142.519 137.188 L 141.911 137.188 L 141.911 137.196 C 128.627 137.518 117.941 148.404 117.941 161.766 C 117.941 175.331 128.954 186.343 142.519 186.343 L 142.519 186.268 Z " fill="rgb(255,255,255)"/></g></svg>
