<?xml version="1.0" standalone="no"?>
<!DOCTYPE svg PUBLIC "-//W3C//DTD SVG 20010904//EN"
 "http://www.w3.org/TR/2001/REC-SVG-20010904/DTD/svg10.dtd">
<svg version="1.0" xmlns="http://www.w3.org/2000/svg"
 width="256.000000pt" height="256.000000pt" viewBox="0 0 256.000000 256.000000"
 preserveAspectRatio="xMidYMid meet">
<metadata>
Created by potrace 1.15, written by Peter Selinger 2001-2017
</metadata>
<g transform="translate(0.000000,256.000000) scale(0.100000,-0.100000)"
fill="#fff" stroke="none">
<path d="M1145 2537 c-104 -35 -174 -90 -207 -163 -35 -80 -41 -180 -27 -434
l12 -235 -22 -44 c-13 -24 -60 -93 -106 -153 -162 -213 -324 -587 -292 -672 5
-12 11 -12 44 5 50 25 61 24 116 -11 l47 -30 0 76 c0 106 24 205 77 309 53
106 80 137 139 160 48 18 54 29 25 45 -64 34 -65 68 -7 153 37 55 44 72 48
127 4 55 1 69 -19 98 -31 47 -29 84 7 125 29 34 30 35 15 70 -37 88 -6 207 53
207 46 0 92 -61 92 -122 l0 -33 60 0 60 0 0 45 c0 98 97 164 168 114 52 -36
81 -136 59 -202 -15 -42 -14 -44 9 -67 27 -27 29 -53 9 -110 -17 -46 -10 -78
36 -160 15 -27 41 -90 59 -140 17 -49 53 -138 81 -196 63 -134 82 -220 83
-376 0 -85 4 -123 12 -123 24 0 44 -37 44 -83 0 -54 23 -77 79 -77 46 0 93 31
135 90 29 40 42 50 65 50 25 0 30 5 41 45 20 71 8 194 -30 300 -43 123 -94
215 -212 383 -55 79 -115 173 -134 210 -51 104 -78 221 -76 327 2 165 -49 316
-134 394 -25 24 -75 57 -112 74 -58 27 -80 32 -162 34 -59 2 -110 -2 -135 -10z"/>
<path d="M1012 2088 c-20 -20 -15 -102 8 -131 l20 -25 -35 -29 c-26 -20 -37
-39 -42 -66 -6 -38 -4 -41 76 -119 l81 -80 78 3 c70 4 83 8 142 45 36 23 75
44 87 48 40 13 73 63 73 110 0 47 -17 70 -62 81 l-27 7 21 28 c23 32 20 78 -8
118 -15 22 -66 30 -91 14 -19 -12 -35 -64 -28 -90 5 -21 3 -23 -12 -16 -10 5
-55 9 -101 9 -79 0 -82 1 -82 23 0 26 -17 63 -34 74 -17 12 -51 9 -64 -4z"/>
<path d="M544 811 c-17 -11 -50 -46 -74 -79 -37 -53 -86 -92 -117 -92 -5 0
-32 -7 -61 -15 -81 -24 -84 -30 -77 -154 4 -61 2 -133 -4 -170 -18 -113 1
-129 219 -176 69 -15 181 -47 249 -71 183 -65 216 -62 322 29 43 38 44 39 44
101 0 53 -5 70 -30 108 -16 25 -61 92 -99 149 -38 57 -99 149 -135 204 -115
175 -165 210 -237 166z"/>
<path d="M730 772 c0 -4 12 -24 26 -43 14 -19 66 -98 116 -176 49 -79 92 -143
95 -143 10 0 48 24 55 34 4 6 8 26 8 45 0 28 -9 43 -48 80 -69 66 -252 213
-252 203z"/>
<path d="M1658 763 c-12 -14 -17 -55 -21 -173 -4 -85 -13 -195 -22 -245 -45
-249 -4 -335 158 -335 84 0 117 13 190 78 59 51 159 120 299 206 61 37 79 54
88 81 14 44 9 53 -67 109 -88 64 -123 116 -123 178 0 109 -42 117 -133 25 -81
-83 -132 -93 -211 -42 -22 15 -26 25 -26 64 0 26 -5 52 -12 59 -19 19 -102 15
-120 -5z"/>
<path d="M1540 394 c-107 -86 -248 -129 -401 -122 -68 3 -78 1 -73 -12 4 -8 9
-40 12 -71 l4 -57 217 2 c119 0 228 -2 244 -7 26 -7 27 -6 21 17 -5 22 19 224
32 269 8 26 -6 21 -56 -19z"/>
</g>
</svg>