<?xml version="1.0" standalone="no"?>
<!DOCTYPE svg PUBLIC "-//W3C//DTD SVG 20010904//EN"
 "http://www.w3.org/TR/2001/REC-SVG-20010904/DTD/svg10.dtd">
<svg version="1.0" xmlns="http://www.w3.org/2000/svg"
 width="341.000000pt" height="315.000000pt" viewBox="0 0 341.000000 315.000000"
 preserveAspectRatio="xMidYMid meet">
<metadata>
Created by potrace 1.15, written by Peter Selinger 2001-2017
</metadata>
<g transform="translate(0.000000,315.000000) scale(0.100000,-0.100000)"
fill="#fff" stroke="none">
<path d="M1763 3137 c-4 -8 -40 -30 -78 -50 -39 -21 -99 -60 -135 -89 -54 -42
-59 -45 -31 -15 19 21 31 37 27 37 -12 0 -126 -112 -121 -120 2 -4 -28 -40
-67 -81 -81 -85 -190 -219 -271 -334 -124 -175 -154 -214 -161 -210 -3 3 -4 2
-2 -1 5 -7 -180 -283 -201 -300 -7 -6 -13 -15 -13 -20 1 -5 -25 -62 -57 -128
l-58 -118 -72 6 c-40 3 -112 19 -160 36 -102 35 -219 101 -215 119 2 9 -4 12
-17 8 -12 -3 -37 9 -71 35 -56 42 -70 43 -52 2 7 -14 8 -23 2 -19 -5 3 -10 -3
-10 -14 0 -22 20 -30 20 -8 0 6 9 1 20 -13 11 -14 18 -32 17 -40 -1 -8 3 -15
10 -15 6 0 42 -32 80 -71 73 -76 165 -141 281 -199 40 -20 70 -40 68 -44 -19
-30 -40 -236 -41 -396 0 -191 6 -261 25 -310 6 -16 12 -44 13 -62 0 -17 4 -30
7 -28 4 3 13 -15 20 -38 8 -23 21 -58 30 -77 10 -19 15 -41 13 -47 -3 -7 2
-15 10 -18 8 -4 33 -36 57 -73 24 -37 57 -76 74 -88 17 -11 30 -26 28 -32 -1
-7 2 -13 8 -13 21 -3 27 -6 93 -44 37 -22 67 -43 67 -47 0 -4 8 -8 18 -8 9 0
52 -13 94 -28 66 -23 75 -29 60 -39 -15 -11 -15 -12 4 -12 11 -1 24 2 27 5 3
4 87 7 186 8 98 0 174 -2 168 -6 -7 -5 -3 -8 10 -8 12 0 26 6 30 13 9 15 79
37 136 42 22 2 43 8 46 14 4 5 47 28 96 51 86 40 285 159 285 171 0 3 -20 20
-45 38 -27 19 -43 37 -39 44 4 7 4 9 -1 5 -4 -4 -20 0 -35 9 -25 14 -29 14
-55 -3 -16 -10 -42 -20 -59 -20 -16 -1 -35 -9 -41 -17 -11 -15 -75 -37 -110
-37 -17 0 -17 2 -5 10 24 16 2 11 -33 -6 -27 -14 -52 -16 -162 -10 -148 7
-188 14 -178 29 4 6 -2 8 -15 5 -26 -7 -93 12 -86 24 3 4 -4 8 -15 8 -32 0
-52 11 -61 36 -6 14 -15 22 -23 18 -30 -11 -129 153 -131 217 -1 15 -4 25 -7
23 -19 -11 -26 185 -7 219 6 12 12 38 14 58 2 19 17 65 33 101 28 59 53 92
132 174 39 40 175 108 259 129 85 21 270 33 270 17 0 -7 7 -12 15 -12 8 0 15
5 15 10 0 6 7 10 15 10 8 0 15 -5 15 -10 0 -25 -33 -86 -65 -121 -19 -22 -36
-44 -36 -49 -1 -6 -2 -16 -3 -22 0 -7 -6 -13 -13 -13 -17 0 -77 -64 -69 -73 4
-4 21 9 38 28 l30 35 -26 -37 c-14 -20 -26 -41 -26 -47 0 -9 99 -51 120 -51 5
0 7 -6 5 -13 -4 -8 8 -12 41 -12 28 0 50 -6 58 -15 6 -8 30 -16 54 -17 23 -2
68 -10 98 -19 31 -9 73 -17 93 -18 20 -2 46 -3 59 -4 15 -1 21 -6 16 -14 -5
-8 0 -9 17 -5 16 4 33 -2 59 -20 47 -36 55 -48 81 -118 12 -33 29 -78 39 -100
9 -22 25 -62 35 -90 9 -27 24 -65 32 -84 9 -19 16 -46 16 -60 0 -14 6 -31 14
-36 8 -6 16 -27 18 -46 4 -50 4 -51 14 -45 14 9 31 -50 19 -62 -12 -12 -2 -32
17 -32 14 0 30 -44 26 -74 -2 -11 2 -16 11 -13 7 2 20 -2 30 -10 9 -8 42 -25
73 -38 46 -18 69 -22 118 -17 44 4 58 2 53 -6 -10 -17 19 -15 36 1 15 16 122
31 113 17 -10 -16 25 -11 41 5 9 8 34 16 57 17 87 4 95 6 166 41 25 12 54 37
70 61 l26 40 3 1295 c3 1441 7 1342 -64 1421 -19 20 -30 40 -26 44 4 4 2 6 -3
5 -6 -2 -30 5 -55 14 -41 16 -95 17 -685 15 -362 -2 -648 -7 -659 -12 -14 -7
-17 -6 -12 2 4 7 5 12 2 12 -3 0 -9 -6 -13 -13z m200 -774 c9 -9 17 -24 17
-35 0 -10 7 -18 15 -18 11 0 15 -11 15 -39 0 -33 -7 -44 -45 -80 -43 -40 -72
-49 -109 -35 -9 3 -13 11 -9 17 4 6 0 8 -10 4 -11 -4 -23 3 -36 20 -23 28 -18
47 22 91 29 31 9 28 -26 -5 l-30 -28 7 30 c11 45 34 75 69 91 37 16 94 10 120
-13z m545 -647 c25 -24 27 -33 27 -111 0 -103 -13 -122 -93 -132 l-52 -6 0
-93 0 -94 -55 0 -55 0 0 236 0 237 101 -5 c92 -5 103 -7 127 -32z m182 -51 c0
-84 0 -85 25 -85 25 0 25 1 25 85 l0 85 55 0 55 0 0 -235 0 -235 -55 0 -55 0
0 100 0 100 -25 0 -25 0 0 -100 0 -100 -55 0 -55 0 0 235 0 235 55 0 55 0 0
-85z m448 51 c25 -24 27 -33 27 -111 0 -103 -13 -122 -93 -132 l-52 -6 0 -93
0 -94 -55 0 -55 0 0 236 0 237 101 -5 c92 -5 103 -7 127 -32z"/>
</g>
</svg>